<?xml version="1.0" encoding="UTF-8" standalone="no"?>
<svg
   xmlns:dc="http://purl.org/dc/elements/1.1/"
   xmlns:cc="http://creativecommons.org/ns#"
   xmlns:rdf="http://www.w3.org/1999/02/22-rdf-syntax-ns#"
   xmlns:svg="http://www.w3.org/2000/svg"
   xmlns="http://www.w3.org/2000/svg"
   version="1.1"
   id="svg2"
   viewBox="0 0 300 300"
   height="300"
   width="300">
  <g
     id="layer1">
    <path
       id="path3347"
       d="m 72.276607,43.704835 c -0.572892,-0.0012 -1.161366,0.0072 -1.769424,0.02705 -19.457871,0.634563 -21.677136,14.09904 -21.677136,14.09904 l -0.315566,0.299788 C 65.167437,61.268787 72.784802,71.638014 69.069103,76.57555 65.172615,81.753325 51.039789,74.169732 43.454153,74.0668 38.319732,73.99713 32.113104,75.884307 28.593246,77.123282 l -4.792097,4.568947 c 31.044828,-4.325717 53.966832,10.22383 54.245809,40.913151 0.278977,30.68931 -26.115532,60.80871 -26.631523,85.35611 -0.51599,24.54741 11.255904,48.44135 45.139473,63.35665 33.883562,14.91528 78.098242,6.07584 99.709872,-13.22672 -58.17007,7.14549 -90.81684,-0.34435 -101.238114,-20.93556 -11.788504,-23.29272 -7.863473,-58.31325 38.467504,-71.78227 0,0 -20.99644,-39.97246 -26.485,-53.22472 C 101.5206,98.896599 100.03772,71.556755 94.077714,59.505679 91.195007,53.676868 90.036231,43.74317 72.276607,43.704835 Z"
       style="opacity:1;fill:#375ead;fill-opacity:1;fill-rule:evenodd;stroke:none;stroke-width:1px;stroke-linecap:butt;stroke-linejoin:miter;stroke-opacity:1" />
    <path
       id="path3349"
       d="M 273.4988,285.48708 C 238.47236,238.67287 192.14463,179.40852 139.43331,175.61166 c -52.711331,-3.79686 -58.034921,68.48624 -8.45196,74.79573 49.58295,6.30948 72.82467,-14.5499 142.51745,35.07969 z"
       style="fill:#119dd8;fill-opacity:1;fill-rule:evenodd;stroke:none;stroke-width:1px;stroke-linecap:butt;stroke-linejoin:miter;stroke-opacity:1" />
    <path
       id="path3349-0"
       d="m 82.611132,41.32975 c -1.502919,-9.553962 -3.176264,-21.884074 2.458843,-28.567379 5.635108,-6.6833025 14.81343,1.030268 9.837144,7.632991 -4.976288,6.602723 -11.147917,5.957045 -12.295987,20.934388 z"
       style="fill:#10a2a9;fill-opacity:1;fill-rule:evenodd;stroke:none;stroke-width:0.1654164px;stroke-linecap:butt;stroke-linejoin:miter;stroke-opacity:1" />
    <path
       id="path4274"
       d="m 161.70822,60.726254 c -4.18064,1.142805 -7.69851,5.474647 -8.65767,12.897616 -2.0462,15.835675 7.1687,21.166799 6.88379,19.929961 -4.64424,-20.169952 12.03324,-25.186152 17.03428,-1.722733 0.27854,1.306673 5.66156,-9.312001 -1.258,-22.560508 -3.67603,-7.038268 -9.26433,-9.839517 -14.0024,-8.544336 z"
       style="fill:#4ab46e;fill-opacity:1;fill-rule:evenodd;stroke:none;stroke-width:1px;stroke-linecap:butt;stroke-linejoin:miter;stroke-opacity:1" />
    <path
       id="path3366"
       d="m 166.30658,82.592281 c -2.94704,0.657539 -6.1663,6.592079 -2.55054,12.071135 3.61576,5.479054 9.76805,4.247785 9.99197,-2.22938 0.22395,-6.477166 -4.49438,-10.499292 -7.44143,-9.841755 z"
       style="fill:#e9e950;fill-opacity:1;fill-rule:evenodd;stroke:none;stroke-width:1px;stroke-linecap:butt;stroke-linejoin:miter;stroke-opacity:1" />
    <path
       id="path4278"
       d="m 221.34469,69.934848 c -4.61658,-0.331588 -9.68643,2.723252 -13.26367,9.73073 -7.63148,14.949286 -0.21615,23.445592 -0.0684,22.122442 2.41064,-21.576624 20.98801,-20.706219 17.77891,4.25314 -0.17863,1.39 8.98227,-7.231594 6.66513,-22.757157 -1.23098,-8.247956 -5.87977,-12.973356 -11.11191,-13.349155 z"
       style="fill:#4ab46e;fill-opacity:1;fill-rule:evenodd;stroke:none;stroke-width:1px;stroke-linecap:butt;stroke-linejoin:miter;stroke-opacity:1" />
    <path
       id="path3379"
       d="m 218.29135,93.173213 c -3.20229,-0.380204 -8.53466,4.364487 -6.81613,11.048967 1.71852,6.68449 8.35392,7.6181 10.85737,1.28909 2.50345,-6.328993 -0.83895,-11.957851 -4.04124,-12.338057 z"
       style="fill:#e9e950;fill-opacity:1;fill-rule:evenodd;stroke:none;stroke-width:1px;stroke-linecap:butt;stroke-linejoin:miter;stroke-opacity:1" />
    <path
       id="path4282"
       d="m 265.31911,126.08523 c -3.5736,-1.13866 -8.16753,0.35026 -12.35904,5.28838 -8.9419,10.53466 -4.7612,18.74433 -4.38572,17.71213 6.12482,-16.8319 20.59602,-12.62157 13.17955,6.76967 -0.41353,1.07971 8.49532,-4.09561 9.70911,-16.97325 0.64483,-6.84126 -2.09382,-11.50645 -6.1439,-12.79693 z"
       style="fill:#4ab46e;fill-opacity:1;fill-rule:evenodd;stroke:none;stroke-width:1px;stroke-linecap:butt;stroke-linejoin:miter;stroke-opacity:1" />
    <path
       id="path3381"
       d="m 258.36238,144.12702 c -2.44941,-0.91017 -7.58114,1.88306 -7.53557,7.5638 0.0456,5.68075 5.09241,7.68352 8.30475,3.08596 3.21236,-4.59755 1.68024,-9.73958 -0.76918,-10.64976 z"
       style="fill:#e9e950;fill-opacity:1;fill-rule:evenodd;stroke:none;stroke-width:1px;stroke-linecap:butt;stroke-linejoin:miter;stroke-opacity:1" />
    <path
       id="path3383"
       d="m 155.41764,171.11593 c 12.393,-23.87079 15.94311,-41.75099 14.67768,-66.98765"
       style="fill:none;fill-rule:evenodd;stroke:#10a2a9;stroke-width:5.77035093;stroke-linecap:round;stroke-linejoin:miter;stroke-miterlimit:4;stroke-dasharray:none;stroke-opacity:1" />
    <path
       id="path3383-5"
       d="m 183.88811,183.75159 c 6.82872,-6.14757 27.43809,-43.38929 30.70651,-67.38945"
       style="fill:none;fill-rule:evenodd;stroke:#10a2a9;stroke-width:5.77035093;stroke-linecap:round;stroke-linejoin:miter;stroke-miterlimit:4;stroke-dasharray:none;stroke-opacity:1" />
    <path
       id="path3383-5-1"
       d="m 209.93706,201.85303 c 10.12605,-6.76581 28.05635,-24.22348 39.15595,-40.59855"
       style="fill:none;fill-rule:evenodd;stroke:#10a2a9;stroke-width:5.77035093;stroke-linecap:round;stroke-linejoin:miter;stroke-miterlimit:4;stroke-dasharray:none;stroke-opacity:1" />
    <path
       id="path3383-5-1-1"
       d="m 196.98788,192.72795 c 20.01808,-16.45177 55.58364,-78.15777 58.09341,-147.558993"
       style="fill:none;fill-rule:evenodd;stroke:#10a2a9;stroke-width:5.77035093;stroke-linecap:round;stroke-linejoin:miter;stroke-miterlimit:4;stroke-dasharray:none;stroke-opacity:1" />
    <path
       id="path3383-5-1-8"
       d="m 142.23047,168.23298 c 3.7846,-13.25874 1.27539,-37.13008 -7.21292,-43.07156"
       style="fill:none;fill-rule:evenodd;stroke:#10a2a9;stroke-width:5.77035093;stroke-linecap:round;stroke-linejoin:miter;stroke-miterlimit:4;stroke-dasharray:none;stroke-opacity:1" />
    <path
       id="path3383-5-1-11"
       d="m 169.85101,175.99173 c 8.02379,-15.57993 27.082,-32.29048 21.96059,-90.182371"
       style="fill:none;fill-rule:evenodd;stroke:#10a2a9;stroke-width:5.77035093;stroke-linecap:round;stroke-linejoin:miter;stroke-miterlimit:4;stroke-dasharray:none;stroke-opacity:1" />
    <path
       id="path3383-5-1-8-6"
       d="m 220.13737,211.9187 c 4.81501,-5.42755 34.41599,-22.02382 47.73722,-23.25465"
       style="fill:none;fill-rule:evenodd;stroke:#10a2a9;stroke-width:5.77035093;stroke-linecap:round;stroke-linejoin:miter;stroke-miterlimit:4;stroke-dasharray:none;stroke-opacity:1" />
    <path
       id="path3383-5-1-8-6-1"
       d="m 227.68361,219.06596 c 4.78182,-4.32237 17.07694,-5.78756 21.59239,-1.16933"
       style="fill:none;fill-rule:evenodd;stroke:#10a2a9;stroke-width:5.77035093;stroke-linecap:round;stroke-linejoin:miter;stroke-miterlimit:4;stroke-dasharray:none;stroke-opacity:1" />
    <path
       id="path4284"
       d="M 46.060825,59.89791 30.487649,74.022502 c 2.783156,-0.97966 7.690603,-2.460017 11.750539,-2.416764 7.63947,0.08139 19.809249,7.065663 24.72808,2.747385 C 70.082414,71.617435 58.103214,62.379188 46.060825,59.89791 Z"
       style="fill:#e9e950;fill-opacity:1;fill-rule:evenodd;stroke:none;stroke-width:1px;stroke-linecap:butt;stroke-linejoin:miter;stroke-opacity:1" />
    <path
       style="fill:#119dd8;fill-opacity:1;fill-rule:evenodd;stroke:none;stroke-width:0.14340162px;stroke-linecap:butt;stroke-linejoin:miter;stroke-opacity:1"
       d="m 85.556187,41.901121 c 3.955323,-7.392699 9.244115,-16.794329 16.634973,-18.470192 7.39086,-1.675862 9.70556,8.456703 2.81243,10.421262 -6.893133,1.964556 -10.823544,-1.708389 -19.447403,8.04893 z"
       id="path4294" />
    <path
       style="fill:#10a2a9;fill-opacity:1;fill-rule:evenodd;stroke:none;stroke-width:0.124613px;stroke-linecap:butt;stroke-linejoin:miter;stroke-opacity:1"
       d="m 87.247727,43.356427 c 7.023743,-2.459387 16.129053,-5.44208 22.062473,-2.358136 5.93341,3.083939 1.47777,10.792541 -4.29397,8.170342 -5.771722,-2.622199 -6.223089,-7.149886 -17.768503,-5.812206 z"
       id="path4294-1" />
  </g>
</svg>
